<svg xmlns="http://www.w3.org/2000/svg" xmlns:xlink="http://www.w3.org/1999/xlink" width="644" height="450.78"><rect width="644" height="450.78" rx="5" ry="5" class="a"/><svg y="0%" x="0%"><circle cx="20" cy="20" r="6" fill="#ff5f58"/><circle cx="40" cy="20" r="6" fill="#ffbd2e"/><circle cx="60" cy="20" r="6" fill="#18c132"/></svg><svg height="390.78" viewBox="0 0 60 39.078" width="600" x="17" xmlns="http://www.w3.org/2000/svg" xmlns:xlink="http://www.w3.org/1999/xlink" y="50"><style>@keyframes t{0%{transform:translateX(0)}.7%{transform:translateX(-180px)}1.2%{transform:translateX(-360px)}1.3%{transform:translateX(-420px)}15.3%{transform:translateX(-480px)}19.7%{transform:translateX(-540px)}22%{transform:translateX(-600px)}24.6%{transform:translateX(-720px)}35.1%{transform:translateX(-900px)}36.4%{transform:translateX(-1020px)}39%{transform:translateX(-1080px)}41.9%{transform:translateX(-1200px)}42%{transform:translateX(-1260px)}43.8%{transform:translateX(-1380px)}47.6%{transform:translateX(-1440px)}49.5%{transform:translateX(-1500px)}55.7%{transform:translateX(-1800px)}64.8%{transform:translateX(-1860px)}66.6%{transform:translateX(-1980px)}68.2%{transform:translateX(-2100px)}69.9%{transform:translateX(-2220px)}71.6%{transform:translateX(-2340px)}73.3%{transform:translateX(-2460px)}74.2%{transform:translateX(-2640px)}74.3%{transform:translateX(-2760px)}74.4%{transform:translateX(-2820px)}74.7%{transform:translateX(-3000px)}to{transform:translateX(-3120px)}}.a{fill:#282d35}.f{fill:#b9c0cb}.g{fill:#1c1c1c}.h{fill:#fff}.i{fill:#a8cc8c}.k{fill:#005fd7}.l{fill:#555}.m{fill:#00afff}.o{fill:#b9bfca}.p{fill:#66c2cd}.q{fill:#191970}.v{fill:red}.w{fill:#00afff;text-decoration:underline}.x{fill:#8787d7}</style><g font-size="1.67" font-family="Monaco,Consolas,Menlo,'Bitstream Vera Sans Mono','Powerline Symbols',monospace"><defs><symbol id="1"><text y="1.67" class="f">Welcome</text><text x="8.016" y="1.67" class="f">to</text><text x="11.022" y="1.67" class="f">fish,</text><text x="17.034" y="1.67" class="f">the</text><text x="21.042" y="1.67" class="f">friendly</text><text x="30.06" y="1.67" class="f">interactive</text><text x="42.084" y="1.67" class="f">shell</text></symbol><symbol id="2"><path class="g" d="M0 0h13v2.171H0z"/><text y="1.67" class="h">~/p/look-up</text><path class="i" d="M13.026 0h2v2.171h-2z"/><text x="13.026" y="1.67" class="g"></text><path class="i" d="M15.03 0h9v2.171h-9z"/><text x="15.03" y="1.67" class="j"> master</text><text x="24.048" y="1.67" class="i"></text></symbol><symbol id="3"><path class="g" d="M0 0h13v2.171H0z"/><text y="1.67" class="h">~/p/look-up</text><path class="i" d="M13.026 0h2v2.171h-2z"/><text x="13.026" y="1.67" class="g"></text><path class="i" d="M15.03 0h9v2.171h-9z"/><text x="15.03" y="1.67" class="j"> master</text><text x="24.048" y="1.67" class="i"></text><text x="26.052" y="1.67" class="k">lookup</text><text x="33.066" y="1.67" class="l">e</text></symbol><symbol id="4"><path class="g" d="M0 0h13v2.171H0z"/><text y="1.67" class="h">~/p/look-up</text><path class="i" d="M13.026 0h2v2.171h-2z"/><text x="13.026" y="1.67" class="g"></text><path class="i" d="M15.03 0h9v2.171h-9z"/><text x="15.03" y="1.67" class="j"> master</text><text x="24.048" y="1.67" class="i"></text><text x="26.052" y="1.67" class="k">lookup</text><text x="33.066" y="1.67" class="m">sick</text></symbol><symbol id="5"><text y="1.67" class="f">Querying...</text><text x="12.024" y="1.67" class="f">done</text></symbol><symbol id="6"><path fill="teal" d="M0 0h6v2.171H0z"/><text y="1.67" class="o">sick</text></symbol><symbol id="7"><path class="p" d="M0 0h6v2.171H0z"/><text y="1.67" class="o">AmE:</text><text x="7.014" y="1.67" class="f">/sɪk/</text></symbol><symbol id="8"><path class="p" d="M0 0h6v2.171H0z"/><text y="1.67" class="o">BrE:</text><text x="7.014" y="1.67" class="f">/sɪk/</text></symbol><symbol id="9"><path class="q" d="M0 0h4v2.171H0z"/><text y="1.67" class="o">n.</text><text x="5.01" y="1.67" class="f">病人；呕吐物</text></symbol><symbol id="10"><path class="q" d="M0 0h6v2.171H0z"/><text y="1.67" class="o">adj.</text><text x="7.014" y="1.67" class="f">恶心；晕船；有病的；想呕吐</text></symbol><symbol id="11"><path class="q" d="M0 0h4v2.171H0z"/><text y="1.67" class="o">v.</text><text x="5.01" y="1.67" class="f">攻击；追击；(纵狗)追击；〈美〉嗾使(狗等)去咬[去攻击]</text></symbol><symbol id="12"><path class="q" d="M0 0h5v2.171H0z"/><text y="1.67" class="o">Web</text><text x="6.012" y="1.67" class="f">施克；生病的；西克</text></symbol><symbol id="a"><path fill="transparent" d="M0 0h60v18H0z"/></symbol><symbol id="b"><path fill="#6f7683" d="M0 0h1.102v2.171H0z"/></symbol></defs><path class="a" d="M0 0h60v39.078H0z"/><g style="animation-duration:5.965949s;animation-iteration-count:infinite;animation-name:t;animation-timing-function:steps(1,end)"><svg width="3180"><svg><use xlink:href="#a"/><use xlink:href="#b" x="-.004"/></svg><svg x="60"><use xlink:href="#a"/><use xlink:href="#b" x="-.004" y="2.146"/><use xlink:href="#1"/></svg><svg x="120"><use xlink:href="#a"/><use xlink:href="#b" x="-.004" y="2.146"/><use xlink:href="#1"/></svg><svg x="180"><use xlink:href="#a"/><use xlink:href="#b" x="-.004" y="2.146"/><use xlink:href="#1"/></svg><svg x="240"><use xlink:href="#a"/><use xlink:href="#b" x="-.004" y="2.146"/><use xlink:href="#1"/></svg><svg x="300"><use xlink:href="#a"/><use xlink:href="#b" x="-.004" y="2.146"/><use xlink:href="#1"/></svg><svg x="360"><use xlink:href="#a"/><use xlink:href="#b" x="-.004" y="8.659"/><use xlink:href="#1"/></svg><svg x="420"><use xlink:href="#a"/><use xlink:href="#b" x="25.996" y="8.659"/><use xlink:href="#1"/><use xlink:href="#2" y="8.684"/></svg><svg x="480"><use xlink:href="#a"/><use xlink:href="#b" x="26.996" y="8.659"/><use xlink:href="#1"/><path class="g" d="M0 8.684h13v2.171H0z"/><text y="10.354" class="h">~/p/look-up</text><path class="i" d="M13.026 8.684h2v2.171h-2z"/><text x="13.026" y="10.354" class="g"></text><path class="i" d="M15.03 8.684h9v2.171h-9z"/><text x="15.03" y="10.354" class="j"> master</text><text x="24.048" y="10.354" class="i"></text><text x="26.052" y="10.354" class="v">l</text><text x="27.054" y="10.354" class="l">ook</text><text x="31.062" y="10.354" class="l">sick</text></svg><svg x="540"><use xlink:href="#a"/><use xlink:href="#b" x="27.996" y="8.659"/><use xlink:href="#1"/><path class="g" d="M0 8.684h13v2.171H0z"/><text y="10.354" class="h">~/p/look-up</text><path class="i" d="M13.026 8.684h2v2.171h-2z"/><text x="13.026" y="10.354" class="g"></text><path class="i" d="M15.03 8.684h9v2.171h-9z"/><text x="15.03" y="10.354" class="j"> master</text><text x="24.048" y="10.354" class="i"></text><text x="26.052" y="10.354" class="v">lo</text><text x="28.056" y="10.354" class="l">ok</text><text x="31.062" y="10.354" class="l">sick</text></svg><svg x="600"><use xlink:href="#a"/><use xlink:href="#b" x="28.996" y="8.659"/><use xlink:href="#1"/><path class="g" d="M0 8.684h13v2.171H0z"/><text y="10.354" class="h">~/p/look-up</text><path class="i" d="M13.026 8.684h2v2.171h-2z"/><text x="13.026" y="10.354" class="g"></text><path class="i" d="M15.03 8.684h9v2.171h-9z"/><text x="15.03" y="10.354" class="j"> master</text><text x="24.048" y="10.354" class="i"></text><text x="26.052" y="10.354" class="v">loo</text><text x="29.058" y="10.354" class="l">k</text><text x="31.062" y="10.354" class="l">sick</text></svg><svg x="660"><use xlink:href="#a"/><use xlink:href="#b" x="29.996" y="8.659"/><use xlink:href="#1"/><path class="g" d="M0 8.684h13v2.171H0z"/><text y="10.354" class="h">~/p/look-up</text><path class="i" d="M13.026 8.684h2v2.171h-2z"/><text x="13.026" y="10.354" class="g"></text><path class="i" d="M15.03 8.684h9v2.171h-9z"/><text x="15.03" y="10.354" class="j"> master</text><text x="24.048" y="10.354" class="i"></text><text x="26.052" y="10.354" class="v">look</text><text x="31.062" y="10.354" class="l">sick</text></svg><svg x="720"><use xlink:href="#a"/><use xlink:href="#b" x="29.996" y="8.659"/><use xlink:href="#1"/><path class="g" d="M0 8.684h13v2.171H0z"/><text y="10.354" class="h">~/p/look-up</text><path class="i" d="M13.026 8.684h2v2.171h-2z"/><text x="13.026" y="10.354" class="g"></text><path class="i" d="M15.03 8.684h9v2.171h-9z"/><text x="15.03" y="10.354" class="j"> master</text><text x="24.048" y="10.354" class="i"></text><text x="26.052" y="10.354" class="k">look</text><text x="31.062" y="10.354" class="l">sick</text></svg><svg x="780"><use xlink:href="#a"/><use xlink:href="#b" x="30.996" y="8.659"/><use xlink:href="#1"/><path class="g" d="M0 8.684h13v2.171H0z"/><text y="10.354" class="h">~/p/look-up</text><path class="i" d="M13.026 8.684h2v2.171h-2z"/><text x="13.026" y="10.354" class="g"></text><path class="i" d="M15.03 8.684h9v2.171h-9z"/><text x="15.03" y="10.354" class="j"> master</text><text x="24.048" y="10.354" class="i"></text><text x="26.052" y="10.354" class="k">looku</text></svg><svg x="840"><use xlink:href="#a"/><use xlink:href="#b" x="30.996" y="8.659"/><use xlink:href="#1"/><path class="g" d="M0 8.684h13v2.171H0z"/><text y="10.354" class="h">~/p/look-up</text><path class="i" d="M13.026 8.684h2v2.171h-2z"/><text x="13.026" y="10.354" class="g"></text><path class="i" d="M15.03 8.684h9v2.171h-9z"/><text x="15.03" y="10.354" class="j"> master</text><text x="24.048" y="10.354" class="i"></text><text x="26.052" y="10.354" class="v">looku</text></svg><svg x="900"><use xlink:href="#a"/><use xlink:href="#b" x="30.996" y="8.659"/><use xlink:href="#1"/><path class="g" d="M0 8.684h13v2.171H0z"/><text y="10.354" class="h">~/p/look-up</text><path class="i" d="M13.026 8.684h2v2.171h-2z"/><text x="13.026" y="10.354" class="g"></text><path class="i" d="M15.03 8.684h9v2.171h-9z"/><text x="15.03" y="10.354" class="j"> master</text><text x="24.048" y="10.354" class="i"></text><text x="26.052" y="10.354" class="v">looku</text><text x="31.062" y="10.354" class="l">p</text><text x="33.066" y="10.354" class="l">e</text></svg><svg x="960"><use xlink:href="#a"/><use xlink:href="#b" x="31.996" y="8.659"/><use xlink:href="#1"/><path class="g" d="M0 8.684h13v2.171H0z"/><text y="10.354" class="h">~/p/look-up</text><path class="i" d="M13.026 8.684h2v2.171h-2z"/><text x="13.026" y="10.354" class="g"></text><path class="i" d="M15.03 8.684h9v2.171h-9z"/><text x="15.03" y="10.354" class="j"> master</text><text x="24.048" y="10.354" class="i"></text><text x="26.052" y="10.354" class="v">lookup</text><text x="33.066" y="10.354" class="l">e</text></svg><svg x="1020"><use xlink:href="#a"/><use xlink:href="#b" x="31.996" y="8.659"/><use xlink:href="#1"/><use xlink:href="#3" y="8.684"/></svg><svg x="1080"><use xlink:href="#a"/><use xlink:href="#b" x="32.996" y="8.659"/><use xlink:href="#1"/><use xlink:href="#3" y="8.684"/></svg><svg x="1140"><use xlink:href="#a"/><use xlink:href="#b" x="33.996" y="8.659"/><use xlink:href="#1"/><path class="g" d="M0 8.684h13v2.171H0z"/><text y="10.354" class="h">~/p/look-up</text><path class="i" d="M13.026 8.684h2v2.171h-2z"/><text x="13.026" y="10.354" class="g"></text><path class="i" d="M15.03 8.684h9v2.171h-9z"/><text x="15.03" y="10.354" class="j"> master</text><text x="24.048" y="10.354" class="i"></text><text x="26.052" y="10.354" class="k">lookup</text><text x="33.066" y="10.354" class="f">s</text></svg><svg x="1200"><use xlink:href="#a"/><use xlink:href="#b" x="33.996" y="8.659"/><use xlink:href="#1"/><path class="g" d="M0 8.684h13v2.171H0z"/><text y="10.354" class="h">~/p/look-up</text><path class="i" d="M13.026 8.684h2v2.171h-2z"/><text x="13.026" y="10.354" class="g"></text><path class="i" d="M15.03 8.684h9v2.171h-9z"/><text x="15.03" y="10.354" class="j"> master</text><text x="24.048" y="10.354" class="i"></text><text x="26.052" y="10.354" class="k">lookup</text><text x="33.066" y="10.354" class="w">s</text></svg><svg x="1260"><use xlink:href="#a"/><use xlink:href="#b" x="33.996" y="8.659"/><use xlink:href="#1"/><path class="g" d="M0 8.684h13v2.171H0z"/><text y="10.354" class="h">~/p/look-up</text><path class="i" d="M13.026 8.684h2v2.171h-2z"/><text x="13.026" y="10.354" class="g"></text><path class="i" d="M15.03 8.684h9v2.171h-9z"/><text x="15.03" y="10.354" class="j"> master</text><text x="24.048" y="10.354" class="i"></text><text x="26.052" y="10.354" class="k">lookup</text><text x="33.066" y="10.354" class="w">s</text><text x="34.068" y="10.354" class="l">rc/</text></svg><svg x="1320"><use xlink:href="#a"/><use xlink:href="#b" x="34.996" y="8.659"/><use xlink:href="#1"/><path class="g" d="M0 8.684h13v2.171H0z"/><text y="10.354" class="h">~/p/look-up</text><path class="i" d="M13.026 8.684h2v2.171h-2z"/><text x="13.026" y="10.354" class="g"></text><path class="i" d="M15.03 8.684h9v2.171h-9z"/><text x="15.03" y="10.354" class="j"> master</text><text x="24.048" y="10.354" class="i"></text><text x="26.052" y="10.354" class="k">lookup</text><text x="33.066" y="10.354" class="w">si</text></svg><svg x="1380"><use xlink:href="#a"/><use xlink:href="#b" x="34.996" y="8.659"/><use xlink:href="#1"/><path class="g" d="M0 8.684h13v2.171H0z"/><text y="10.354" class="h">~/p/look-up</text><path class="i" d="M13.026 8.684h2v2.171h-2z"/><text x="13.026" y="10.354" class="g"></text><path class="i" d="M15.03 8.684h9v2.171h-9z"/><text x="15.03" y="10.354" class="j"> master</text><text x="24.048" y="10.354" class="i"></text><text x="26.052" y="10.354" class="k">lookup</text><text x="33.066" y="10.354" class="m">si</text></svg><svg x="1440"><use xlink:href="#a"/><use xlink:href="#b" x="35.996" y="8.659"/><use xlink:href="#1"/><path class="g" d="M0 8.684h13v2.171H0z"/><text y="10.354" class="h">~/p/look-up</text><path class="i" d="M13.026 8.684h2v2.171h-2z"/><text x="13.026" y="10.354" class="g"></text><path class="i" d="M15.03 8.684h9v2.171h-9z"/><text x="15.03" y="10.354" class="j"> master</text><text x="24.048" y="10.354" class="i"></text><text x="26.052" y="10.354" class="k">lookup</text><text x="33.066" y="10.354" class="m">sic</text></svg><svg x="1500"><use xlink:href="#a"/><use xlink:href="#b" x="36.996" y="8.659"/><use xlink:href="#1"/><use xlink:href="#4" y="8.684"/></svg><svg x="1560"><use xlink:href="#a"/><use xlink:href="#b" x="-.004" y="10.83"/><use xlink:href="#1"/><use xlink:href="#4" y="8.684"/></svg><svg x="1620"><use xlink:href="#a"/><use xlink:href="#b" x="-.004" y="10.83"/><use xlink:href="#1"/><use xlink:href="#4" y="8.684"/></svg><svg x="1680"><use xlink:href="#a"/><use xlink:href="#b" x="-.004" y="10.83"/><use xlink:href="#1"/><use xlink:href="#4" y="8.684"/></svg><svg x="1740"><use xlink:href="#a"/><use xlink:href="#b" x="-.004" y="10.83"/><use xlink:href="#1"/><use xlink:href="#4" y="8.684"/></svg><svg x="1800"><use xlink:href="#a"/><use xlink:href="#b" x="-.004" y="10.83"/><use xlink:href="#1"/><use xlink:href="#4" y="8.684"/></svg><svg x="1860"><use xlink:href="#a"/><use xlink:href="#b" x="-.004" y="13.001"/><use xlink:href="#1"/><use xlink:href="#4" y="8.684"/><text y="12.525" class="f">Querying...</text></svg><svg x="1920"><use xlink:href="#a"/><use xlink:href="#b" x="-.004" y="10.83"/><use xlink:href="#1"/><use xlink:href="#4" y="8.684"/></svg><svg x="1980"><use xlink:href="#a"/><use xlink:href="#b" x="-.004" y="13.001"/><use xlink:href="#1"/><use xlink:href="#4" y="8.684"/><text y="12.525" class="f">Querying...</text><text x="12.024" y="12.525" class="x">⣾</text></svg><svg x="2040"><use xlink:href="#a"/><use xlink:href="#b" x="-.004" y="10.83"/><use xlink:href="#1"/><use xlink:href="#4" y="8.684"/></svg><svg x="2100"><use xlink:href="#a"/><use xlink:href="#b" x="-.004" y="13.001"/><use xlink:href="#1"/><use xlink:href="#4" y="8.684"/><text y="12.525" class="f">Querying...</text><text x="12.024" y="12.525" class="x">⣽</text></svg><svg x="2160"><use xlink:href="#a"/><use xlink:href="#b" x="-.004" y="10.83"/><use xlink:href="#1"/><use xlink:href="#4" y="8.684"/></svg><svg x="2220"><use xlink:href="#a"/><use xlink:href="#b" x="-.004" y="13.001"/><use xlink:href="#1"/><use xlink:href="#4" y="8.684"/><text y="12.525" class="f">Querying...</text><text x="12.024" y="12.525" class="x">⣻</text></svg><svg x="2280"><use xlink:href="#a"/><use xlink:href="#b" x="-.004" y="10.83"/><use xlink:href="#1"/><use xlink:href="#4" y="8.684"/></svg><svg x="2340"><use xlink:href="#a"/><use xlink:href="#b" x="-.004" y="13.001"/><use xlink:href="#1"/><use xlink:href="#4" y="8.684"/><text y="12.525" class="f">Querying...</text><text x="12.024" y="12.525" class="x">⢿</text></svg><svg x="2400"><use xlink:href="#a"/><use xlink:href="#b" x="-.004" y="10.83"/><use xlink:href="#1"/><use xlink:href="#4" y="8.684"/></svg><svg x="2460"><use xlink:href="#a"/><use xlink:href="#b" x="-.004" y="13.001"/><use xlink:href="#1"/><use xlink:href="#4" y="8.684"/><text y="12.525" class="f">Querying...</text><text x="12.024" y="12.525" class="x">⡿</text></svg><svg x="2520"><use xlink:href="#a"/><use xlink:href="#b" x="-.004" y="13.001"/><use xlink:href="#1"/><use xlink:href="#4" y="8.684"/><use xlink:href="#5" y="10.855"/></svg><svg x="2580"><use xlink:href="#a"/><use xlink:href="#b" x="-.004" y="15.172"/><use xlink:href="#1"/><use xlink:href="#4" y="8.684"/><use xlink:href="#5" y="10.855"/><use xlink:href="#6" y="13.026"/></svg><svg x="2640"><use xlink:href="#a"/><use xlink:href="#b" x="-.004" y="19.514"/><use xlink:href="#1"/><use xlink:href="#4" y="8.684"/><use xlink:href="#5" y="10.855"/><use xlink:href="#6" y="13.026"/><use xlink:href="#7" y="15.197"/><use xlink:href="#8" y="17.368"/></svg><svg x="2700"><use xlink:href="#a"/><use xlink:href="#b" x="-.004" y="26.027"/><use xlink:href="#1"/><use xlink:href="#4" y="8.684"/><use xlink:href="#5" y="10.855"/><use xlink:href="#6" y="13.026"/><use xlink:href="#7" y="15.197"/><use xlink:href="#8" y="17.368"/><use xlink:href="#9" y="19.539"/><use xlink:href="#10" y="21.71"/><use xlink:href="#11" y="23.881"/></svg><svg x="2760"><use xlink:href="#a"/><use xlink:href="#b" x="-.004" y="28.198"/><use xlink:href="#1"/><use xlink:href="#4" y="8.684"/><use xlink:href="#5" y="10.855"/><use xlink:href="#6" y="13.026"/><use xlink:href="#7" y="15.197"/><use xlink:href="#8" y="17.368"/><use xlink:href="#9" y="19.539"/><use xlink:href="#10" y="21.71"/><use xlink:href="#11" y="23.881"/><use xlink:href="#12" y="26.052"/></svg><svg x="2820"><use xlink:href="#a"/><use xlink:href="#b" x="-.004" y="28.198"/><use xlink:href="#1"/><use xlink:href="#4" y="8.684"/><use xlink:href="#5" y="10.855"/><use xlink:href="#6" y="13.026"/><use xlink:href="#7" y="15.197"/><use xlink:href="#8" y="17.368"/><use xlink:href="#9" y="19.539"/><use xlink:href="#10" y="21.71"/><use xlink:href="#11" y="23.881"/><use xlink:href="#12" y="26.052"/></svg><svg x="2880"><use xlink:href="#a"/><use xlink:href="#b" x="-.004" y="28.198"/><use xlink:href="#1"/><use xlink:href="#4" y="8.684"/><use xlink:href="#5" y="10.855"/><use xlink:href="#6" y="13.026"/><use xlink:href="#7" y="15.197"/><use xlink:href="#8" y="17.368"/><use xlink:href="#9" y="19.539"/><use xlink:href="#10" y="21.71"/><use xlink:href="#11" y="23.881"/><use xlink:href="#12" y="26.052"/></svg><svg x="2940"><use xlink:href="#a"/><use xlink:href="#b" x="-.004" y="34.711"/><use xlink:href="#1"/><use xlink:href="#4" y="8.684"/><use xlink:href="#5" y="10.855"/><use xlink:href="#6" y="13.026"/><use xlink:href="#7" y="15.197"/><use xlink:href="#8" y="17.368"/><use xlink:href="#9" y="19.539"/><use xlink:href="#10" y="21.71"/><use xlink:href="#11" y="23.881"/><use xlink:href="#12" y="26.052"/></svg><svg x="3000"><use xlink:href="#a"/><use xlink:href="#b" x="25.996" y="34.711"/><use xlink:href="#1"/><use xlink:href="#4" y="8.684"/><use xlink:href="#5" y="10.855"/><use xlink:href="#6" y="13.026"/><use xlink:href="#7" y="15.197"/><use xlink:href="#8" y="17.368"/><use xlink:href="#9" y="19.539"/><use xlink:href="#10" y="21.71"/><use xlink:href="#11" y="23.881"/><use xlink:href="#12" y="26.052"/><use xlink:href="#2" y="34.736"/></svg><svg x="3060"><use xlink:href="#a"/><use xlink:href="#b" x="-.004" y="36.882"/><use xlink:href="#1"/><use xlink:href="#4" y="8.684"/><use xlink:href="#5" y="10.855"/><use xlink:href="#6" y="13.026"/><use xlink:href="#7" y="15.197"/><use xlink:href="#8" y="17.368"/><use xlink:href="#9" y="19.539"/><use xlink:href="#10" y="21.71"/><use xlink:href="#11" y="23.881"/><use xlink:href="#12" y="26.052"/><use xlink:href="#2" y="34.736"/></svg><svg x="3120"><use xlink:href="#a"/><use xlink:href="#b" x="-.004" y="36.882"/><use xlink:href="#1"/><use xlink:href="#4" y="8.684"/><use xlink:href="#5" y="10.855"/><use xlink:href="#6" y="13.026"/><use xlink:href="#7" y="15.197"/><use xlink:href="#8" y="17.368"/><use xlink:href="#9" y="19.539"/><use xlink:href="#10" y="21.71"/><use xlink:href="#11" y="23.881"/><use xlink:href="#12" y="26.052"/><use xlink:href="#2" y="34.736"/></svg></svg></g></g></svg></svg>