<svg xmlns="http://www.w3.org/2000/svg" xmlns:xlink="http://www.w3.org/1999/xlink" width="644" height="450.78"><rect width="644" height="450.78" rx="5" ry="5" class="a"/><svg y="0%" x="0%"><circle cx="20" cy="20" r="6" fill="#ff5f58"/><circle cx="40" cy="20" r="6" fill="#ffbd2e"/><circle cx="60" cy="20" r="6" fill="#18c132"/></svg><svg height="390.78" viewBox="0 0 60 39.078" width="600" x="17" xmlns="http://www.w3.org/2000/svg" xmlns:xlink="http://www.w3.org/1999/xlink" y="50"><style>@keyframes u{0%{transform:translateX(0)}.3%{transform:translateX(-240px)}.7%{transform:translateX(-480px)}.9%{transform:translateX(-660px)}22.8%{transform:translateX(-780px)}33.5%{transform:translateX(-900px)}36.5%{transform:translateX(-960px)}40.5%{transform:translateX(-1020px)}40.7%{transform:translateX(-1080px)}40.9%{transform:translateX(-1140px)}41.2%{transform:translateX(-1200px)}41.4%{transform:translateX(-1260px)}41.7%{transform:translateX(-1320px)}41.9%{transform:translateX(-1380px)}42.2%{transform:translateX(-1440px)}43.5%{transform:translateX(-1500px)}45.5%{transform:translateX(-1680px)}50.1%{transform:translateX(-1740px)}52.8%{transform:translateX(-1800px)}56.3%{transform:translateX(-2040px)}61.9%{transform:translateX(-2100px)}62.8%{transform:translateX(-2220px)}63.6%{transform:translateX(-2340px)}64.4%{transform:translateX(-2460px)}65.2%{transform:translateX(-2580px)}66%{transform:translateX(-2700px)}66.8%{transform:translateX(-2760px)}67.6%{transform:translateX(-2880px)}68.4%{transform:translateX(-3000px)}69.2%{transform:translateX(-3120px)}70%{transform:translateX(-3240px)}70.8%{transform:translateX(-3300px)}71.6%{transform:translateX(-3360px)}72.4%{transform:translateX(-3420px)}73.2%{transform:translateX(-3540px)}74%{transform:translateX(-3600px)}74.8%{transform:translateX(-3660px)}75.6%{transform:translateX(-3720px)}76.4%{transform:translateX(-3840px)}77.3%{transform:translateX(-3960px)}78.1%{transform:translateX(-4080px)}78.9%{transform:translateX(-4200px)}79.7%{transform:translateX(-4260px)}80.5%{transform:translateX(-4380px)}81.3%{transform:translateX(-4440px)}82.1%{transform:translateX(-4500px)}82.9%{transform:translateX(-4560px)}83.7%{transform:translateX(-4680px)}84.5%{transform:translateX(-4740px)}85.3%{transform:translateX(-4800px)}86.1%{transform:translateX(-4920px)}86.9%{transform:translateX(-5040px)}87.7%{transform:translateX(-5160px)}88.3%{transform:translateX(-5580px)}88.4%{transform:translateX(-5640px)}88.7%{transform:translateX(-6000px)}88.9%{transform:translateX(-6120px)}to{transform:translateX(-6300px)}}.a{fill:#282d35}.f{fill:#b9c0cb}.k{fill:#d290e4;font-weight:700}.l{fill:#005fd7}.m{fill:#00afff}.n{fill:#8787d7}.p{fill:#b9bfca}.q{fill:#71bef2}.r{fill:#04438c}.w{fill:#555}</style><g font-size="1.67" font-family="Monaco,Consolas,Menlo,'Bitstream Vera Sans Mono','Powerline Symbols',monospace"><defs><symbol id="1"><text y="1.67" class="f">Welcome</text><text x="8.016" y="1.67" class="f">to</text><text x="11.022" y="1.67" class="f">fish,</text><text x="17.034" y="1.67" class="f">the</text><text x="21.042" y="1.67" class="f">friendly</text><text x="30.06" y="1.67" class="f">interactive</text><text x="42.084" y="1.67" class="f">shell</text></symbol><symbol id="2"><text y="1.67" fill="#66c2cd">margatroid</text><text x="11.022" y="1.67" class="f">at</text><text x="14.028" y="1.67" fill="#dbab79">margatroid-pc</text><text x="28.056" y="1.67" class="f">in</text><text x="31.062" y="1.67" fill="#e88388" font-weight="700">~/p/look-up</text><text x="43.086" y="1.67" class="f">(</text><text x="44.088" y="1.67" fill="#a8cc8c">master</text><text x="50.1" y="1.67" class="f">|✔)</text></symbol><symbol id="3"><text y="1.67" class="k">»</text></symbol><symbol id="4"><text y="1.67" class="k">»</text><text x="2.004" y="1.67" class="l">./bin/run</text><text x="12.024" y="1.67" class="m">asynchronous</text></symbol><symbol id="5"><text y="1.67" class="f">Querying...</text><text x="12.024" y="1.67" class="n">⣾</text></symbol><symbol id="6"><text y="1.67" class="f">Querying...</text><text x="12.024" y="1.67" class="n">⣽</text></symbol><symbol id="7"><text y="1.67" class="f">Querying...</text><text x="12.024" y="1.67" class="n">⣻</text></symbol><symbol id="8"><text y="1.67" class="f">Querying...</text><text x="12.024" y="1.67" class="n">⢿</text></symbol><symbol id="9"><text y="1.67" class="f">Querying...</text><text x="12.024" y="1.67" class="n">⡿</text></symbol><symbol id="10"><text y="1.67" class="f">Querying...</text><text x="12.024" y="1.67" class="n">⣟</text></symbol><symbol id="11"><text y="1.67" class="f">Querying...</text><text x="12.024" y="1.67" class="n">⣯</text></symbol><symbol id="12"><text y="1.67" class="f">Querying...</text><text x="12.024" y="1.67" class="n">⣷</text></symbol><symbol id="13"><text y="1.67" class="f">Querying...</text><text x="12.024" y="1.67" class="f">done</text></symbol><symbol id="14"><path fill="#0393a0" d="M0 0h14v2.171H0z"/><text y="1.67" class="p">asynchronous</text></symbol><symbol id="15"><path class="q" d="M0 0h6v2.171H0z"/><text y="1.67" class="p">AmE:</text><text x="7.014" y="1.67" class="f">/eɪ&apos;sɪŋkrənəs/</text></symbol><symbol id="16"><path class="q" d="M0 0h6v2.171H0z"/><text y="1.67" class="p">BrE:</text><text x="7.014" y="1.67" class="f">/eɪ&apos;sɪŋkrənəs/</text></symbol><symbol id="17"><path class="r" d="M0 0h6v2.171H0z"/><text y="1.67" class="p">adj.</text><text x="7.014" y="1.67" class="f">不同时存在（或发生）的；非共时的</text></symbol><symbol id="18"><path class="r" d="M0 0h5v2.171H0z"/><text y="1.67" class="p">Web</text><text x="6.012" y="1.67" class="f">异步；非同步；异步的</text></symbol><symbol id="a"><path fill="transparent" d="M0 0h60v18H0z"/></symbol><symbol id="b"><path fill="#6f7683" d="M0 0h1.102v2.171H0z"/></symbol></defs><path class="a" d="M0 0h60v39.078H0z"/><g style="animation-duration:12.513976s;animation-iteration-count:infinite;animation-name:u;animation-timing-function:steps(1,end)"><svg width="6360"><svg><use xlink:href="#a"/><use xlink:href="#b" x="-.004"/></svg><svg x="60"><use xlink:href="#a"/><use xlink:href="#b" x="-.004"/></svg><svg x="120"><use xlink:href="#a"/><use xlink:href="#b" x="-.004" y="2.146"/><use xlink:href="#1"/></svg><svg x="180"><use xlink:href="#a"/><use xlink:href="#b" x="-.004" y="2.146"/><use xlink:href="#1"/></svg><svg x="240"><use xlink:href="#a"/><use xlink:href="#b" x="-.004" y="2.146"/><use xlink:href="#1"/></svg><svg x="300"><use xlink:href="#a"/><use xlink:href="#b" x="-.004" y="2.146"/><use xlink:href="#1"/></svg><svg x="360"><use xlink:href="#a"/><use xlink:href="#b" x="-.004" y="2.146"/><use xlink:href="#1"/></svg><svg x="420"><use xlink:href="#a"/><use xlink:href="#b" x="-.004" y="8.659"/><use xlink:href="#1"/></svg><svg x="480"><use xlink:href="#a"/><use xlink:href="#b" x="1.996" y="10.83"/><use xlink:href="#1"/><use xlink:href="#2" y="8.684"/><use xlink:href="#3" y="10.855"/></svg><svg x="540"><use xlink:href="#a"/><use xlink:href="#b" x="1.996" y="10.83"/><use xlink:href="#1"/><use xlink:href="#2" y="8.684"/><use xlink:href="#3" y="10.855"/></svg><svg x="600"><use xlink:href="#a"/><use xlink:href="#b" x="-.004" y="10.83"/><use xlink:href="#1"/><use xlink:href="#2" y="8.684"/><use xlink:href="#3" y="10.855"/></svg><svg x="660"><use xlink:href="#a"/><use xlink:href="#b" x="1.996" y="10.83"/><use xlink:href="#1"/><use xlink:href="#2" y="8.684"/><use xlink:href="#3" y="10.855"/></svg><svg x="720"><use xlink:href="#a"/><use xlink:href="#b" x="2.996" y="10.83"/><use xlink:href="#1"/><use xlink:href="#2" y="8.684"/><text y="12.525" class="k">»</text><text x="2.004" y="12.525" class="l">.</text></svg><svg x="780"><use xlink:href="#a"/><use xlink:href="#b" x="2.996" y="10.83"/><use xlink:href="#1"/><use xlink:href="#2" y="8.684"/><text y="12.525" class="k">»</text><text x="2.004" y="12.525" class="l">.</text><text x="3.006" y="12.525" class="w">/bin/run</text><text x="12.024" y="12.525" class="w">margatroid</text></svg><svg x="840"><use xlink:href="#a"/><use xlink:href="#b" x="21.996" y="10.83"/><use xlink:href="#1"/><use xlink:href="#2" y="8.684"/><text y="12.525" class="k">»</text><text x="2.004" y="12.525" class="l">./bin/run</text><text x="12.024" y="12.525" class="l">margatroid</text></svg><svg x="900"><use xlink:href="#a"/><use xlink:href="#b" x="21.996" y="10.83"/><use xlink:href="#1"/><use xlink:href="#2" y="8.684"/><text y="12.525" class="k">»</text><text x="2.004" y="12.525" class="l">./bin/run</text><text x="12.024" y="12.525" class="m">margatroid</text></svg><svg x="960"><use xlink:href="#a"/><use xlink:href="#b" x="20.996" y="10.83"/><use xlink:href="#1"/><use xlink:href="#2" y="8.684"/><text y="12.525" class="k">»</text><text x="2.004" y="12.525" class="l">./bin/run</text><text x="12.024" y="12.525" class="m">margatroi</text></svg><svg x="1020"><use xlink:href="#a"/><use xlink:href="#b" x="19.996" y="10.83"/><use xlink:href="#1"/><use xlink:href="#2" y="8.684"/><text y="12.525" class="k">»</text><text x="2.004" y="12.525" class="l">./bin/run</text><text x="12.024" y="12.525" class="m">margatro</text></svg><svg x="1080"><use xlink:href="#a"/><use xlink:href="#b" x="18.996" y="10.83"/><use xlink:href="#1"/><use xlink:href="#2" y="8.684"/><text y="12.525" class="k">»</text><text x="2.004" y="12.525" class="l">./bin/run</text><text x="12.024" y="12.525" class="m">margatr</text></svg><svg x="1140"><use xlink:href="#a"/><use xlink:href="#b" x="17.996" y="10.83"/><use xlink:href="#1"/><use xlink:href="#2" y="8.684"/><text y="12.525" class="k">»</text><text x="2.004" y="12.525" class="l">./bin/run</text><text x="12.024" y="12.525" class="m">margat</text></svg><svg x="1200"><use xlink:href="#a"/><use xlink:href="#b" x="16.996" y="10.83"/><use xlink:href="#1"/><use xlink:href="#2" y="8.684"/><text y="12.525" class="k">»</text><text x="2.004" y="12.525" class="l">./bin/run</text><text x="12.024" y="12.525" class="m">marga</text></svg><svg x="1260"><use xlink:href="#a"/><use xlink:href="#b" x="15.996" y="10.83"/><use xlink:href="#1"/><use xlink:href="#2" y="8.684"/><text y="12.525" class="k">»</text><text x="2.004" y="12.525" class="l">./bin/run</text><text x="12.024" y="12.525" class="m">marg</text></svg><svg x="1320"><use xlink:href="#a"/><use xlink:href="#b" x="14.996" y="10.83"/><use xlink:href="#1"/><use xlink:href="#2" y="8.684"/><text y="12.525" class="k">»</text><text x="2.004" y="12.525" class="l">./bin/run</text><text x="12.024" y="12.525" class="m">mar</text></svg><svg x="1380"><use xlink:href="#a"/><use xlink:href="#b" x="13.996" y="10.83"/><use xlink:href="#1"/><use xlink:href="#2" y="8.684"/><text y="12.525" class="k">»</text><text x="2.004" y="12.525" class="l">./bin/run</text><text x="12.024" y="12.525" class="m">ma</text></svg><svg x="1440"><use xlink:href="#a"/><use xlink:href="#b" x="12.996" y="10.83"/><use xlink:href="#1"/><use xlink:href="#2" y="8.684"/><text y="12.525" class="k">»</text><text x="2.004" y="12.525" class="l">./bin/run</text><text x="12.024" y="12.525" class="m">m</text></svg><svg x="1500"><use xlink:href="#a"/><use xlink:href="#b" x="11.996" y="10.83"/><use xlink:href="#1"/><use xlink:href="#2" y="8.684"/><text y="12.525" class="k">»</text><text x="2.004" y="12.525" class="l">./bin/run</text></svg><svg x="1560"><use xlink:href="#a"/><use xlink:href="#b" x="12.996" y="10.83"/><use xlink:href="#1"/><use xlink:href="#2" y="8.684"/><text y="12.525" class="k">»</text><text x="2.004" y="12.525" class="l">./bin/run</text><text x="12.024" y="12.525" class="f">a</text></svg><svg x="1620"><use xlink:href="#a"/><use xlink:href="#b" x="12.996" y="10.83"/><use xlink:href="#1"/><use xlink:href="#2" y="8.684"/><text y="12.525" class="k">»</text><text x="2.004" y="12.525" class="l">./bin/run</text><text x="12.024" y="12.525" class="m">a</text></svg><svg x="1680"><use xlink:href="#a"/><use xlink:href="#b" x="12.996" y="10.83"/><use xlink:href="#1"/><use xlink:href="#2" y="8.684"/><text y="12.525" class="k">»</text><text x="2.004" y="12.525" class="l">./bin/run</text><text x="12.024" y="12.525" class="m">a</text><text x="13.026" y="12.525" class="w">synchronous</text></svg><svg x="1740"><use xlink:href="#a"/><use xlink:href="#b" x="13.996" y="10.83"/><use xlink:href="#1"/><use xlink:href="#2" y="8.684"/><text y="12.525" class="k">»</text><text x="2.004" y="12.525" class="l">./bin/run</text><text x="12.024" y="12.525" class="m">as</text><text x="14.028" y="12.525" class="w">ynchronous</text></svg><svg x="1800"><use xlink:href="#a"/><use xlink:href="#b" x="23.996" y="10.83"/><use xlink:href="#1"/><use xlink:href="#2" y="8.684"/><use xlink:href="#4" y="10.855"/></svg><svg x="1860"><use xlink:href="#a"/><use xlink:href="#b" x="-.004" y="13.001"/><use xlink:href="#1"/><use xlink:href="#2" y="8.684"/><use xlink:href="#4" y="10.855"/></svg><svg x="1920"><use xlink:href="#a"/><use xlink:href="#b" x="-.004" y="13.001"/><use xlink:href="#1"/><use xlink:href="#2" y="8.684"/><use xlink:href="#4" y="10.855"/></svg><svg x="1980"><use xlink:href="#a"/><use xlink:href="#b" x="-.004" y="13.001"/><use xlink:href="#1"/><use xlink:href="#2" y="8.684"/><use xlink:href="#4" y="10.855"/></svg><svg x="2040"><use xlink:href="#a"/><use xlink:href="#b" x="-.004" y="13.001"/><use xlink:href="#1"/><use xlink:href="#2" y="8.684"/><use xlink:href="#4" y="10.855"/></svg><svg x="2100"><use xlink:href="#a"/><use xlink:href="#b" x="-.004" y="15.172"/><use xlink:href="#1"/><use xlink:href="#2" y="8.684"/><use xlink:href="#4" y="10.855"/><text y="14.696" class="f">Querying...</text></svg><svg x="2160"><use xlink:href="#a"/><use xlink:href="#b" x="-.004" y="13.001"/><use xlink:href="#1"/><use xlink:href="#2" y="8.684"/><use xlink:href="#4" y="10.855"/></svg><svg x="2220"><use xlink:href="#a"/><use xlink:href="#b" x="-.004" y="15.172"/><use xlink:href="#1"/><use xlink:href="#2" y="8.684"/><use xlink:href="#4" y="10.855"/><use xlink:href="#5" y="13.026"/></svg><svg x="2280"><use xlink:href="#a"/><use xlink:href="#b" x="-.004" y="13.001"/><use xlink:href="#1"/><use xlink:href="#2" y="8.684"/><use xlink:href="#4" y="10.855"/></svg><svg x="2340"><use xlink:href="#a"/><use xlink:href="#b" x="-.004" y="15.172"/><use xlink:href="#1"/><use xlink:href="#2" y="8.684"/><use xlink:href="#4" y="10.855"/><use xlink:href="#6" y="13.026"/></svg><svg x="2400"><use xlink:href="#a"/><use xlink:href="#b" x="-.004" y="13.001"/><use xlink:href="#1"/><use xlink:href="#2" y="8.684"/><use xlink:href="#4" y="10.855"/></svg><svg x="2460"><use xlink:href="#a"/><use xlink:href="#b" x="-.004" y="15.172"/><use xlink:href="#1"/><use xlink:href="#2" y="8.684"/><use xlink:href="#4" y="10.855"/><use xlink:href="#7" y="13.026"/></svg><svg x="2520"><use xlink:href="#a"/><use xlink:href="#b" x="-.004" y="13.001"/><use xlink:href="#1"/><use xlink:href="#2" y="8.684"/><use xlink:href="#4" y="10.855"/></svg><svg x="2580"><use xlink:href="#a"/><use xlink:href="#b" x="-.004" y="15.172"/><use xlink:href="#1"/><use xlink:href="#2" y="8.684"/><use xlink:href="#4" y="10.855"/><use xlink:href="#8" y="13.026"/></svg><svg x="2640"><use xlink:href="#a"/><use xlink:href="#b" x="-.004" y="13.001"/><use xlink:href="#1"/><use xlink:href="#2" y="8.684"/><use xlink:href="#4" y="10.855"/></svg><svg x="2700"><use xlink:href="#a"/><use xlink:href="#b" x="-.004" y="15.172"/><use xlink:href="#1"/><use xlink:href="#2" y="8.684"/><use xlink:href="#4" y="10.855"/><use xlink:href="#9" y="13.026"/></svg><svg x="2760"><use xlink:href="#a"/><use xlink:href="#b" x="-.004" y="15.172"/><use xlink:href="#1"/><use xlink:href="#2" y="8.684"/><use xlink:href="#4" y="10.855"/><use xlink:href="#10" y="13.026"/></svg><svg x="2820"><use xlink:href="#a"/><use xlink:href="#b" x="-.004" y="13.001"/><use xlink:href="#1"/><use xlink:href="#2" y="8.684"/><use xlink:href="#4" y="10.855"/></svg><svg x="2880"><use xlink:href="#a"/><use xlink:href="#b" x="-.004" y="15.172"/><use xlink:href="#1"/><use xlink:href="#2" y="8.684"/><use xlink:href="#4" y="10.855"/><use xlink:href="#11" y="13.026"/></svg><svg x="2940"><use xlink:href="#a"/><use xlink:href="#b" x="-.004" y="13.001"/><use xlink:href="#1"/><use xlink:href="#2" y="8.684"/><use xlink:href="#4" y="10.855"/></svg><svg x="3000"><use xlink:href="#a"/><use xlink:href="#b" x="-.004" y="15.172"/><use xlink:href="#1"/><use xlink:href="#2" y="8.684"/><use xlink:href="#4" y="10.855"/><use xlink:href="#12" y="13.026"/></svg><svg x="3060"><use xlink:href="#a"/><use xlink:href="#b" x="-.004" y="13.001"/><use xlink:href="#1"/><use xlink:href="#2" y="8.684"/><use xlink:href="#4" y="10.855"/></svg><svg x="3120"><use xlink:href="#a"/><use xlink:href="#b" x="-.004" y="15.172"/><use xlink:href="#1"/><use xlink:href="#2" y="8.684"/><use xlink:href="#4" y="10.855"/><use xlink:href="#5" y="13.026"/></svg><svg x="3180"><use xlink:href="#a"/><use xlink:href="#b" x="-.004" y="13.001"/><use xlink:href="#1"/><use xlink:href="#2" y="8.684"/><use xlink:href="#4" y="10.855"/></svg><svg x="3240"><use xlink:href="#a"/><use xlink:href="#b" x="-.004" y="15.172"/><use xlink:href="#1"/><use xlink:href="#2" y="8.684"/><use xlink:href="#4" y="10.855"/><use xlink:href="#6" y="13.026"/></svg><svg x="3300"><use xlink:href="#a"/><use xlink:href="#b" x="-.004" y="15.172"/><use xlink:href="#1"/><use xlink:href="#2" y="8.684"/><use xlink:href="#4" y="10.855"/><use xlink:href="#7" y="13.026"/></svg><svg x="3360"><use xlink:href="#a"/><use xlink:href="#b" x="-.004" y="15.172"/><use xlink:href="#1"/><use xlink:href="#2" y="8.684"/><use xlink:href="#4" y="10.855"/><use xlink:href="#8" y="13.026"/></svg><svg x="3420"><use xlink:href="#a"/><use xlink:href="#b" x="-.004" y="15.172"/><use xlink:href="#1"/><use xlink:href="#2" y="8.684"/><use xlink:href="#4" y="10.855"/><use xlink:href="#9" y="13.026"/></svg><svg x="3480"><use xlink:href="#a"/><use xlink:href="#b" x="-.004" y="13.001"/><use xlink:href="#1"/><use xlink:href="#2" y="8.684"/><use xlink:href="#4" y="10.855"/></svg><svg x="3540"><use xlink:href="#a"/><use xlink:href="#b" x="-.004" y="15.172"/><use xlink:href="#1"/><use xlink:href="#2" y="8.684"/><use xlink:href="#4" y="10.855"/><use xlink:href="#10" y="13.026"/></svg><svg x="3600"><use xlink:href="#a"/><use xlink:href="#b" x="-.004" y="15.172"/><use xlink:href="#1"/><use xlink:href="#2" y="8.684"/><use xlink:href="#4" y="10.855"/><use xlink:href="#11" y="13.026"/></svg><svg x="3660"><use xlink:href="#a"/><use xlink:href="#b" x="-.004" y="15.172"/><use xlink:href="#1"/><use xlink:href="#2" y="8.684"/><use xlink:href="#4" y="10.855"/><use xlink:href="#12" y="13.026"/></svg><svg x="3720"><use xlink:href="#a"/><use xlink:href="#b" x="-.004" y="15.172"/><use xlink:href="#1"/><use xlink:href="#2" y="8.684"/><use xlink:href="#4" y="10.855"/><use xlink:href="#5" y="13.026"/></svg><svg x="3780"><use xlink:href="#a"/><use xlink:href="#b" x="-.004" y="13.001"/><use xlink:href="#1"/><use xlink:href="#2" y="8.684"/><use xlink:href="#4" y="10.855"/></svg><svg x="3840"><use xlink:href="#a"/><use xlink:href="#b" x="-.004" y="15.172"/><use xlink:href="#1"/><use xlink:href="#2" y="8.684"/><use xlink:href="#4" y="10.855"/><use xlink:href="#6" y="13.026"/></svg><svg x="3900"><use xlink:href="#a"/><use xlink:href="#b" x="-.004" y="13.001"/><use xlink:href="#1"/><use xlink:href="#2" y="8.684"/><use xlink:href="#4" y="10.855"/></svg><svg x="3960"><use xlink:href="#a"/><use xlink:href="#b" x="-.004" y="15.172"/><use xlink:href="#1"/><use xlink:href="#2" y="8.684"/><use xlink:href="#4" y="10.855"/><use xlink:href="#7" y="13.026"/></svg><svg x="4020"><use xlink:href="#a"/><use xlink:href="#b" x="-.004" y="13.001"/><use xlink:href="#1"/><use xlink:href="#2" y="8.684"/><use xlink:href="#4" y="10.855"/></svg><svg x="4080"><use xlink:href="#a"/><use xlink:href="#b" x="-.004" y="15.172"/><use xlink:href="#1"/><use xlink:href="#2" y="8.684"/><use xlink:href="#4" y="10.855"/><use xlink:href="#8" y="13.026"/></svg><svg x="4140"><use xlink:href="#a"/><use xlink:href="#b" x="-.004" y="13.001"/><use xlink:href="#1"/><use xlink:href="#2" y="8.684"/><use xlink:href="#4" y="10.855"/></svg><svg x="4200"><use xlink:href="#a"/><use xlink:href="#b" x="-.004" y="15.172"/><use xlink:href="#1"/><use xlink:href="#2" y="8.684"/><use xlink:href="#4" y="10.855"/><use xlink:href="#9" y="13.026"/></svg><svg x="4260"><use xlink:href="#a"/><use xlink:href="#b" x="-.004" y="15.172"/><use xlink:href="#1"/><use xlink:href="#2" y="8.684"/><use xlink:href="#4" y="10.855"/><use xlink:href="#10" y="13.026"/></svg><svg x="4320"><use xlink:href="#a"/><use xlink:href="#b" x="-.004" y="13.001"/><use xlink:href="#1"/><use xlink:href="#2" y="8.684"/><use xlink:href="#4" y="10.855"/></svg><svg x="4380"><use xlink:href="#a"/><use xlink:href="#b" x="-.004" y="15.172"/><use xlink:href="#1"/><use xlink:href="#2" y="8.684"/><use xlink:href="#4" y="10.855"/><use xlink:href="#11" y="13.026"/></svg><svg x="4440"><use xlink:href="#a"/><use xlink:href="#b" x="-.004" y="15.172"/><use xlink:href="#1"/><use xlink:href="#2" y="8.684"/><use xlink:href="#4" y="10.855"/><use xlink:href="#12" y="13.026"/></svg><svg x="4500"><use xlink:href="#a"/><use xlink:href="#b" x="-.004" y="15.172"/><use xlink:href="#1"/><use xlink:href="#2" y="8.684"/><use xlink:href="#4" y="10.855"/><use xlink:href="#5" y="13.026"/></svg><svg x="4560"><use xlink:href="#a"/><use xlink:href="#b" x="-.004" y="15.172"/><use xlink:href="#1"/><use xlink:href="#2" y="8.684"/><use xlink:href="#4" y="10.855"/><use xlink:href="#6" y="13.026"/></svg><svg x="4620"><use xlink:href="#a"/><use xlink:href="#b" x="-.004" y="13.001"/><use xlink:href="#1"/><use xlink:href="#2" y="8.684"/><use xlink:href="#4" y="10.855"/></svg><svg x="4680"><use xlink:href="#a"/><use xlink:href="#b" x="-.004" y="15.172"/><use xlink:href="#1"/><use xlink:href="#2" y="8.684"/><use xlink:href="#4" y="10.855"/><use xlink:href="#7" y="13.026"/></svg><svg x="4740"><use xlink:href="#a"/><use xlink:href="#b" x="-.004" y="15.172"/><use xlink:href="#1"/><use xlink:href="#2" y="8.684"/><use xlink:href="#4" y="10.855"/><use xlink:href="#8" y="13.026"/></svg><svg x="4800"><use xlink:href="#a"/><use xlink:href="#b" x="-.004" y="15.172"/><use xlink:href="#1"/><use xlink:href="#2" y="8.684"/><use xlink:href="#4" y="10.855"/><use xlink:href="#9" y="13.026"/></svg><svg x="4860"><use xlink:href="#a"/><use xlink:href="#b" x="-.004" y="13.001"/><use xlink:href="#1"/><use xlink:href="#2" y="8.684"/><use xlink:href="#4" y="10.855"/></svg><svg x="4920"><use xlink:href="#a"/><use xlink:href="#b" x="-.004" y="15.172"/><use xlink:href="#1"/><use xlink:href="#2" y="8.684"/><use xlink:href="#4" y="10.855"/><use xlink:href="#10" y="13.026"/></svg><svg x="4980"><use xlink:href="#a"/><use xlink:href="#b" x="-.004" y="13.001"/><use xlink:href="#1"/><use xlink:href="#2" y="8.684"/><use xlink:href="#4" y="10.855"/></svg><svg x="5040"><use xlink:href="#a"/><use xlink:href="#b" x="-.004" y="15.172"/><use xlink:href="#1"/><use xlink:href="#2" y="8.684"/><use xlink:href="#4" y="10.855"/><use xlink:href="#11" y="13.026"/></svg><svg x="5100"><use xlink:href="#a"/><use xlink:href="#b" x="-.004" y="13.001"/><use xlink:href="#1"/><use xlink:href="#2" y="8.684"/><use xlink:href="#4" y="10.855"/></svg><svg x="5160"><use xlink:href="#a"/><use xlink:href="#b" x="-.004" y="15.172"/><use xlink:href="#1"/><use xlink:href="#2" y="8.684"/><use xlink:href="#4" y="10.855"/><use xlink:href="#12" y="13.026"/></svg><svg x="5220"><use xlink:href="#a"/><use xlink:href="#b" x="-.004" y="13.001"/><use xlink:href="#1"/><use xlink:href="#2" y="8.684"/><use xlink:href="#4" y="10.855"/></svg><svg x="5280"><use xlink:href="#a"/><use xlink:href="#b" x="-.004" y="15.172"/><use xlink:href="#1"/><use xlink:href="#2" y="8.684"/><use xlink:href="#4" y="10.855"/><use xlink:href="#13" y="13.026"/></svg><svg x="5340"><use xlink:href="#a"/><use xlink:href="#b" x="-.004" y="17.343"/><use xlink:href="#1"/><use xlink:href="#2" y="8.684"/><use xlink:href="#4" y="10.855"/><use xlink:href="#13" y="13.026"/><use xlink:href="#14" y="15.197"/></svg><svg x="5400"><use xlink:href="#a"/><use xlink:href="#b" x="-.004" y="19.514"/><use xlink:href="#1"/><use xlink:href="#2" y="8.684"/><use xlink:href="#4" y="10.855"/><use xlink:href="#13" y="13.026"/><use xlink:href="#14" y="15.197"/><use xlink:href="#15" y="17.368"/></svg><svg x="5460"><use xlink:href="#a"/><use xlink:href="#b" x="-.004" y="21.685"/><use xlink:href="#1"/><use xlink:href="#2" y="8.684"/><use xlink:href="#4" y="10.855"/><use xlink:href="#13" y="13.026"/><use xlink:href="#14" y="15.197"/><use xlink:href="#15" y="17.368"/><use xlink:href="#16" y="19.539"/></svg><svg x="5520"><use xlink:href="#a"/><use xlink:href="#b" x="-.004" y="23.856"/><use xlink:href="#1"/><use xlink:href="#2" y="8.684"/><use xlink:href="#4" y="10.855"/><use xlink:href="#13" y="13.026"/><use xlink:href="#14" y="15.197"/><use xlink:href="#15" y="17.368"/><use xlink:href="#16" y="19.539"/><use xlink:href="#17" y="21.71"/></svg><svg x="5580"><use xlink:href="#a"/><use xlink:href="#b" x="-.004" y="26.027"/><use xlink:href="#1"/><use xlink:href="#2" y="8.684"/><use xlink:href="#4" y="10.855"/><use xlink:href="#13" y="13.026"/><use xlink:href="#14" y="15.197"/><use xlink:href="#15" y="17.368"/><use xlink:href="#16" y="19.539"/><use xlink:href="#17" y="21.71"/><use xlink:href="#18" y="23.881"/></svg><svg x="5640"><use xlink:href="#a"/><use xlink:href="#b" x="-.004" y="26.027"/><use xlink:href="#1"/><use xlink:href="#2" y="8.684"/><use xlink:href="#4" y="10.855"/><use xlink:href="#13" y="13.026"/><use xlink:href="#14" y="15.197"/><use xlink:href="#15" y="17.368"/><use xlink:href="#16" y="19.539"/><use xlink:href="#17" y="21.71"/><use xlink:href="#18" y="23.881"/></svg><svg x="5700"><use xlink:href="#a"/><use xlink:href="#b" x="-.004" y="26.027"/><use xlink:href="#1"/><use xlink:href="#2" y="8.684"/><use xlink:href="#4" y="10.855"/><use xlink:href="#13" y="13.026"/><use xlink:href="#14" y="15.197"/><use xlink:href="#15" y="17.368"/><use xlink:href="#16" y="19.539"/><use xlink:href="#17" y="21.71"/><use xlink:href="#18" y="23.881"/></svg><svg x="5760"><use xlink:href="#a"/><use xlink:href="#b" x="-.004" y="26.027"/><use xlink:href="#1"/><use xlink:href="#2" y="8.684"/><use xlink:href="#4" y="10.855"/><use xlink:href="#13" y="13.026"/><use xlink:href="#14" y="15.197"/><use xlink:href="#15" y="17.368"/><use xlink:href="#16" y="19.539"/><use xlink:href="#17" y="21.71"/><use xlink:href="#18" y="23.881"/></svg><svg x="5820"><use xlink:href="#a"/><use xlink:href="#b" x="-.004" y="26.027"/><use xlink:href="#1"/><use xlink:href="#2" y="8.684"/><use xlink:href="#4" y="10.855"/><use xlink:href="#13" y="13.026"/><use xlink:href="#14" y="15.197"/><use xlink:href="#15" y="17.368"/><use xlink:href="#16" y="19.539"/><use xlink:href="#17" y="21.71"/><use xlink:href="#18" y="23.881"/></svg><svg x="5880"><use xlink:href="#a"/><use xlink:href="#b" x="-.004" y="32.54"/><use xlink:href="#1"/><use xlink:href="#2" y="8.684"/><use xlink:href="#4" y="10.855"/><use xlink:href="#13" y="13.026"/><use xlink:href="#14" y="15.197"/><use xlink:href="#15" y="17.368"/><use xlink:href="#16" y="19.539"/><use xlink:href="#17" y="21.71"/><use xlink:href="#18" y="23.881"/></svg><svg x="5940"><use xlink:href="#a"/><use xlink:href="#b" x="-.004" y="34.711"/><use xlink:href="#1"/><use xlink:href="#2" y="8.684"/><use xlink:href="#4" y="10.855"/><use xlink:href="#13" y="13.026"/><use xlink:href="#14" y="15.197"/><use xlink:href="#15" y="17.368"/><use xlink:href="#16" y="19.539"/><use xlink:href="#17" y="21.71"/><use xlink:href="#18" y="23.881"/><use xlink:href="#2" y="32.565"/></svg><svg x="6000"><use xlink:href="#a"/><use xlink:href="#b" x="1.996" y="34.711"/><use xlink:href="#1"/><use xlink:href="#2" y="8.684"/><use xlink:href="#4" y="10.855"/><use xlink:href="#13" y="13.026"/><use xlink:href="#14" y="15.197"/><use xlink:href="#15" y="17.368"/><use xlink:href="#16" y="19.539"/><use xlink:href="#17" y="21.71"/><use xlink:href="#18" y="23.881"/><use xlink:href="#2" y="32.565"/><use xlink:href="#3" y="34.736"/></svg><svg x="6060"><use xlink:href="#a"/><use xlink:href="#b" x="-.004" y="34.711"/><use xlink:href="#1"/><use xlink:href="#2" y="8.684"/><use xlink:href="#4" y="10.855"/><use xlink:href="#13" y="13.026"/><use xlink:href="#14" y="15.197"/><use xlink:href="#15" y="17.368"/><use xlink:href="#16" y="19.539"/><use xlink:href="#17" y="21.71"/><use xlink:href="#18" y="23.881"/><use xlink:href="#2" y="32.565"/><use xlink:href="#3" y="34.736"/></svg><svg x="6120"><use xlink:href="#a"/><use xlink:href="#b" x="1.996" y="34.711"/><use xlink:href="#1"/><use xlink:href="#2" y="8.684"/><use xlink:href="#4" y="10.855"/><use xlink:href="#13" y="13.026"/><use xlink:href="#14" y="15.197"/><use xlink:href="#15" y="17.368"/><use xlink:href="#16" y="19.539"/><use xlink:href="#17" y="21.71"/><use xlink:href="#18" y="23.881"/><use xlink:href="#2" y="32.565"/><use xlink:href="#3" y="34.736"/></svg><svg x="6180"><use xlink:href="#a"/><use xlink:href="#b" x="-.004" y="36.882"/><use xlink:href="#1"/><use xlink:href="#2" y="8.684"/><use xlink:href="#4" y="10.855"/><use xlink:href="#13" y="13.026"/><use xlink:href="#14" y="15.197"/><use xlink:href="#15" y="17.368"/><use xlink:href="#16" y="19.539"/><use xlink:href="#17" y="21.71"/><use xlink:href="#18" y="23.881"/><use xlink:href="#2" y="32.565"/><use xlink:href="#3" y="34.736"/></svg><svg x="6240"><use xlink:href="#a"/><use xlink:href="#b" x="-.004" y="36.882"/><use xlink:href="#1"/><use xlink:href="#2" y="8.684"/><use xlink:href="#4" y="10.855"/><use xlink:href="#13" y="13.026"/><use xlink:href="#14" y="15.197"/><use xlink:href="#15" y="17.368"/><use xlink:href="#16" y="19.539"/><use xlink:href="#17" y="21.71"/><use xlink:href="#18" y="23.881"/><use xlink:href="#2" y="32.565"/><use xlink:href="#3" y="34.736"/></svg><svg x="6300"><use xlink:href="#a"/><use xlink:href="#b" x="-.004" y="36.882"/><use xlink:href="#1"/><use xlink:href="#2" y="8.684"/><use xlink:href="#4" y="10.855"/><use xlink:href="#13" y="13.026"/><use xlink:href="#14" y="15.197"/><use xlink:href="#15" y="17.368"/><use xlink:href="#16" y="19.539"/><use xlink:href="#17" y="21.71"/><use xlink:href="#18" y="23.881"/><use xlink:href="#2" y="32.565"/><use xlink:href="#3" y="34.736"/></svg></svg></g></g></svg></svg>
