<svg xmlns="http://www.w3.org/2000/svg" xmlns:xlink="http://www.w3.org/1999/xlink" width="844" height="581.04"><rect width="844" height="581.04" rx="5" ry="5" class="a"/><svg y="0%" x="0%"><circle cx="20" cy="20" r="6" fill="#ff5f58"/><circle cx="40" cy="20" r="6" fill="#ffbd2e"/><circle cx="60" cy="20" r="6" fill="#18c132"/></svg><svg height="521.04" viewBox="0 0 80 52.104" width="800" x="17" xmlns="http://www.w3.org/2000/svg" xmlns:xlink="http://www.w3.org/1999/xlink" y="50"><style>@keyframes t{0%{transform:translateX(0)}.5%{transform:translateX(-400px)}1%{transform:translateX(-640px)}1.4%{transform:translateX(-800px)}21.2%{transform:translateX(-960px)}22.1%{transform:translateX(-1040px)}32.4%{transform:translateX(-1200px)}39.1%{transform:translateX(-1360px)}48.1%{transform:translateX(-1440px)}49.4%{transform:translateX(-1600px)}50.6%{transform:translateX(-1760px)}51.8%{transform:translateX(-1840px)}53.1%{transform:translateX(-1920px)}54.3%{transform:translateX(-2080px)}55.6%{transform:translateX(-2160px)}56.8%{transform:translateX(-2240px)}58%{transform:translateX(-2400px)}59%{transform:translateX(-2800px)}59.1%{transform:translateX(-3040px)}59.2%{transform:translateX(-3120px)}59.6%{transform:translateX(-3280px)}60%{transform:translateX(-3440px)}to{transform:translateX(-3520px)}}.a{fill:#282d35}.f{fill:#b9c0cb}.k{fill:#d290e4;font-weight:700}.l{fill:#005fd7}.o{fill:#b9bfca}.p{fill:#4e4f97}.q{fill:#211e55}.v{fill:#555}.w{fill:#8787d7}</style><g font-size="1.67" font-family="Monaco,Consolas,Menlo,'Bitstream Vera Sans Mono','Powerline Symbols',monospace"><defs><symbol id="1"><text y="1.67" class="f">Welcome</text><text x="8.016" y="1.67" class="f">to</text><text x="11.022" y="1.67" class="f">fish,</text><text x="17.034" y="1.67" class="f">the</text><text x="21.042" y="1.67" class="f">friendly</text><text x="30.06" y="1.67" class="f">interactive</text><text x="42.084" y="1.67" class="f">shell</text></symbol><symbol id="2"><text y="1.67" fill="#66c2cd">margatroid</text><text x="11.022" y="1.67" class="f">at</text><text x="14.028" y="1.67" fill="#dbab79">margatroid-pc</text><text x="28.056" y="1.67" class="f">in</text><text x="31.062" y="1.67" fill="#e88388" font-weight="700">~/p/look-up</text><text x="43.086" y="1.67" class="f">(</text><text x="44.088" y="1.67" fill="#a8cc8c">master</text><text x="50.1" y="1.67" class="f">↑1|✔)</text></symbol><symbol id="3"><text y="1.67" class="k">»</text></symbol><symbol id="4"><text y="1.67" class="k">»</text><text x="2.004" y="1.67" class="l">./bin/run</text><text x="12.024" y="1.67" fill="#00afff">violet</text></symbol><symbol id="5"><text y="1.67" class="f">Querying...</text><text x="12.024" y="1.67" class="f">done</text></symbol><symbol id="6"><path fill="#6e75a4" d="M0 0h8v2.171H0z"/><text y="1.67" class="o">violet</text></symbol><symbol id="7"><path class="p" d="M0 0h6v2.171H0z"/><text y="1.67" class="o">AmE:</text><text x="7.014" y="1.67" class="f">/&apos;vaɪələt/</text></symbol><symbol id="8"><path class="p" d="M0 0h6v2.171H0z"/><text y="1.67" class="o">BrE:</text><text x="7.014" y="1.67" class="f">/&apos;vaɪələt/</text></symbol><symbol id="9"><path class="q" d="M0 0h4v2.171H0z"/><text y="1.67" class="o">n.</text><text x="5.01" y="1.67" class="f">紫罗兰；紫罗兰色；蓝紫色</text></symbol><symbol id="10"><path class="q" d="M0 0h6v2.171H0z"/><text y="1.67" class="o">adj.</text><text x="7.014" y="1.67" class="f">紫罗兰色的</text></symbol><symbol id="11"><path class="q" d="M0 0h5v2.171H0z"/><text y="1.67" class="o">Web</text><text x="6.012" y="1.67" class="f">紫色的；紫色紫罗兰；维奥莱特</text></symbol><symbol id="a"><path fill="transparent" d="M0 0h80v24H0z"/></symbol><symbol id="b"><path fill="#6f7683" d="M0 0h1.102v2.171H0z"/></symbol></defs><path class="a" d="M0 0h80v52.104H0z"/><g style="animation-duration:8.07292s;animation-iteration-count:infinite;animation-name:t;animation-timing-function:steps(1,end)"><svg width="3600"><svg><use xlink:href="#a"/><use xlink:href="#b" x="-.004"/></svg><svg x="80"><use xlink:href="#a"/><use xlink:href="#b" x="-.004"/></svg><svg x="160"><use xlink:href="#a"/><use xlink:href="#b" x="-.004"/></svg><svg x="240"><use xlink:href="#a"/><use xlink:href="#b" x="-.004" y="2.146"/><use xlink:href="#1"/></svg><svg x="320"><use xlink:href="#a"/><use xlink:href="#b" x="-.004" y="2.146"/><use xlink:href="#1"/></svg><svg x="400"><use xlink:href="#a"/><use xlink:href="#b" x="-.004" y="2.146"/><use xlink:href="#1"/></svg><svg x="480"><use xlink:href="#a"/><use xlink:href="#b" x="-.004" y="2.146"/><use xlink:href="#1"/></svg><svg x="560"><use xlink:href="#a"/><use xlink:href="#b" x="-.004" y="2.146"/><use xlink:href="#1"/></svg><svg x="640"><use xlink:href="#a"/><use xlink:href="#b" x="1.996" y="4.317"/><use xlink:href="#1"/><use xlink:href="#2" y="2.171"/><use xlink:href="#3" y="4.342"/></svg><svg x="720"><use xlink:href="#a"/><use xlink:href="#b" x="1.996" y="4.317"/><use xlink:href="#1"/><use xlink:href="#2" y="2.171"/><use xlink:href="#3" y="4.342"/></svg><svg x="800"><use xlink:href="#a"/><use xlink:href="#b" x="1.996" y="4.317"/><use xlink:href="#1"/><use xlink:href="#2" y="2.171"/><use xlink:href="#3" y="4.342"/></svg><svg x="880"><use xlink:href="#a"/><use xlink:href="#b" x="2.996" y="4.317"/><use xlink:href="#1"/><use xlink:href="#2" y="2.171"/><text y="6.012" class="k">»</text><text x="2.004" y="6.012" class="l">.</text></svg><svg x="960"><use xlink:href="#a"/><use xlink:href="#b" x="2.996" y="4.317"/><use xlink:href="#1"/><use xlink:href="#2" y="2.171"/><text y="6.012" class="k">»</text><text x="2.004" y="6.012" class="l">.</text><text x="3.006" y="6.012" class="v">/bin/run</text><text x="12.024" y="6.012" class="v">violet</text></svg><svg x="1040"><use xlink:href="#a"/><use xlink:href="#b" x="3.996" y="4.317"/><use xlink:href="#1"/><use xlink:href="#2" y="2.171"/><text y="6.012" class="k">»</text><text x="2.004" y="6.012" class="l">./</text><text x="4.008" y="6.012" class="v">bin/run</text><text x="12.024" y="6.012" class="v">violet</text></svg><svg x="1120"><use xlink:href="#a"/><use xlink:href="#b" x="17.996" y="4.317"/><use xlink:href="#1"/><use xlink:href="#2" y="2.171"/><text y="6.012" class="k">»</text><text x="2.004" y="6.012" class="l">./bin/run</text><text x="12.024" y="6.012" class="l">violet</text></svg><svg x="1200"><use xlink:href="#a"/><use xlink:href="#b" x="17.996" y="4.317"/><use xlink:href="#1"/><use xlink:href="#2" y="2.171"/><use xlink:href="#4" y="4.342"/></svg><svg x="1280"><use xlink:href="#a"/><use xlink:href="#b" x="-.004" y="6.488"/><use xlink:href="#1"/><use xlink:href="#2" y="2.171"/><use xlink:href="#4" y="4.342"/></svg><svg x="1360"><use xlink:href="#a"/><use xlink:href="#b" x="-.004" y="6.488"/><use xlink:href="#1"/><use xlink:href="#2" y="2.171"/><use xlink:href="#4" y="4.342"/></svg><svg x="1440"><use xlink:href="#a"/><use xlink:href="#b" x="-.004" y="8.659"/><use xlink:href="#1"/><use xlink:href="#2" y="2.171"/><use xlink:href="#4" y="4.342"/><text y="8.183" class="f">Querying...</text></svg><svg x="1520"><use xlink:href="#a"/><use xlink:href="#b" x="-.004" y="6.488"/><use xlink:href="#1"/><use xlink:href="#2" y="2.171"/><use xlink:href="#4" y="4.342"/></svg><svg x="1600"><use xlink:href="#a"/><use xlink:href="#b" x="-.004" y="8.659"/><use xlink:href="#1"/><use xlink:href="#2" y="2.171"/><use xlink:href="#4" y="4.342"/><text y="8.183" class="f">Querying...</text><text x="12.024" y="8.183" class="w">⣾</text></svg><svg x="1680"><use xlink:href="#a"/><use xlink:href="#b" x="-.004" y="6.488"/><use xlink:href="#1"/><use xlink:href="#2" y="2.171"/><use xlink:href="#4" y="4.342"/></svg><svg x="1760"><use xlink:href="#a"/><use xlink:href="#b" x="-.004" y="8.659"/><use xlink:href="#1"/><use xlink:href="#2" y="2.171"/><use xlink:href="#4" y="4.342"/><text y="8.183" class="f">Querying...</text><text x="12.024" y="8.183" class="w">⣽</text></svg><svg x="1840"><use xlink:href="#a"/><use xlink:href="#b" x="-.004" y="8.659"/><use xlink:href="#1"/><use xlink:href="#2" y="2.171"/><use xlink:href="#4" y="4.342"/><text y="8.183" class="f">Querying...</text><text x="12.024" y="8.183" class="w">⣻</text></svg><svg x="1920"><use xlink:href="#a"/><use xlink:href="#b" x="-.004" y="8.659"/><use xlink:href="#1"/><use xlink:href="#2" y="2.171"/><use xlink:href="#4" y="4.342"/><text y="8.183" class="f">Querying...</text><text x="12.024" y="8.183" class="w">⢿</text></svg><svg x="2000"><use xlink:href="#a"/><use xlink:href="#b" x="-.004" y="6.488"/><use xlink:href="#1"/><use xlink:href="#2" y="2.171"/><use xlink:href="#4" y="4.342"/></svg><svg x="2080"><use xlink:href="#a"/><use xlink:href="#b" x="-.004" y="8.659"/><use xlink:href="#1"/><use xlink:href="#2" y="2.171"/><use xlink:href="#4" y="4.342"/><text y="8.183" class="f">Querying...</text><text x="12.024" y="8.183" class="w">⡿</text></svg><svg x="2160"><use xlink:href="#a"/><use xlink:href="#b" x="-.004" y="8.659"/><use xlink:href="#1"/><use xlink:href="#2" y="2.171"/><use xlink:href="#4" y="4.342"/><text y="8.183" class="f">Querying...</text><text x="12.024" y="8.183" class="w">⣟</text></svg><svg x="2240"><use xlink:href="#a"/><use xlink:href="#b" x="-.004" y="8.659"/><use xlink:href="#1"/><use xlink:href="#2" y="2.171"/><use xlink:href="#4" y="4.342"/><text y="8.183" class="f">Querying...</text><text x="12.024" y="8.183" class="w">⣯</text></svg><svg x="2320"><use xlink:href="#a"/><use xlink:href="#b" x="-.004" y="6.488"/><use xlink:href="#1"/><use xlink:href="#2" y="2.171"/><use xlink:href="#4" y="4.342"/></svg><svg x="2400"><use xlink:href="#a"/><use xlink:href="#b" x="-.004" y="8.659"/><use xlink:href="#1"/><use xlink:href="#2" y="2.171"/><use xlink:href="#4" y="4.342"/><text y="8.183" class="f">Querying...</text><text x="12.024" y="8.183" class="w">⣷</text></svg><svg x="2480"><use xlink:href="#a"/><use xlink:href="#b" x="-.004" y="6.488"/><use xlink:href="#1"/><use xlink:href="#2" y="2.171"/><use xlink:href="#4" y="4.342"/></svg><svg x="2560"><use xlink:href="#a"/><use xlink:href="#b" x="-.004" y="8.659"/><use xlink:href="#1"/><use xlink:href="#2" y="2.171"/><use xlink:href="#4" y="4.342"/><use xlink:href="#5" y="6.513"/></svg><svg x="2640"><use xlink:href="#a"/><use xlink:href="#b" x="-.004" y="10.83"/><use xlink:href="#1"/><use xlink:href="#2" y="2.171"/><use xlink:href="#4" y="4.342"/><use xlink:href="#5" y="6.513"/><use xlink:href="#6" y="8.684"/></svg><svg x="2720"><use xlink:href="#a"/><use xlink:href="#b" x="-.004" y="13.001"/><use xlink:href="#1"/><use xlink:href="#2" y="2.171"/><use xlink:href="#4" y="4.342"/><use xlink:href="#5" y="6.513"/><use xlink:href="#6" y="8.684"/><use xlink:href="#7" y="10.855"/></svg><svg x="2800"><use xlink:href="#a"/><use xlink:href="#b" x="-.004" y="15.172"/><use xlink:href="#1"/><use xlink:href="#2" y="2.171"/><use xlink:href="#4" y="4.342"/><use xlink:href="#5" y="6.513"/><use xlink:href="#6" y="8.684"/><use xlink:href="#7" y="10.855"/><use xlink:href="#8" y="13.026"/></svg><svg x="2880"><use xlink:href="#a"/><use xlink:href="#b" x="-.004" y="17.343"/><use xlink:href="#1"/><use xlink:href="#2" y="2.171"/><use xlink:href="#4" y="4.342"/><use xlink:href="#5" y="6.513"/><use xlink:href="#6" y="8.684"/><use xlink:href="#7" y="10.855"/><use xlink:href="#8" y="13.026"/><use xlink:href="#9" y="15.197"/></svg><svg x="2960"><use xlink:href="#a"/><use xlink:href="#b" x="-.004" y="19.514"/><use xlink:href="#1"/><use xlink:href="#2" y="2.171"/><use xlink:href="#4" y="4.342"/><use xlink:href="#5" y="6.513"/><use xlink:href="#6" y="8.684"/><use xlink:href="#7" y="10.855"/><use xlink:href="#8" y="13.026"/><use xlink:href="#9" y="15.197"/><use xlink:href="#10" y="17.368"/></svg><svg x="3040"><use xlink:href="#a"/><use xlink:href="#b" x="-.004" y="21.685"/><use xlink:href="#1"/><use xlink:href="#2" y="2.171"/><use xlink:href="#4" y="4.342"/><use xlink:href="#5" y="6.513"/><use xlink:href="#6" y="8.684"/><use xlink:href="#7" y="10.855"/><use xlink:href="#8" y="13.026"/><use xlink:href="#9" y="15.197"/><use xlink:href="#10" y="17.368"/><use xlink:href="#11" y="19.539"/></svg><svg x="3120"><use xlink:href="#a"/><use xlink:href="#b" x="-.004" y="21.685"/><use xlink:href="#1"/><use xlink:href="#2" y="2.171"/><use xlink:href="#4" y="4.342"/><use xlink:href="#5" y="6.513"/><use xlink:href="#6" y="8.684"/><use xlink:href="#7" y="10.855"/><use xlink:href="#8" y="13.026"/><use xlink:href="#9" y="15.197"/><use xlink:href="#10" y="17.368"/><use xlink:href="#11" y="19.539"/></svg><svg x="3200"><use xlink:href="#a"/><use xlink:href="#b" x="-.004" y="21.685"/><use xlink:href="#1"/><use xlink:href="#2" y="2.171"/><use xlink:href="#4" y="4.342"/><use xlink:href="#5" y="6.513"/><use xlink:href="#6" y="8.684"/><use xlink:href="#7" y="10.855"/><use xlink:href="#8" y="13.026"/><use xlink:href="#9" y="15.197"/><use xlink:href="#10" y="17.368"/><use xlink:href="#11" y="19.539"/></svg><svg x="3280"><use xlink:href="#a"/><use xlink:href="#b" x="1.996" y="23.856"/><use xlink:href="#1"/><use xlink:href="#2" y="2.171"/><use xlink:href="#4" y="4.342"/><use xlink:href="#5" y="6.513"/><use xlink:href="#6" y="8.684"/><use xlink:href="#7" y="10.855"/><use xlink:href="#8" y="13.026"/><use xlink:href="#9" y="15.197"/><use xlink:href="#10" y="17.368"/><use xlink:href="#11" y="19.539"/><use xlink:href="#2" y="21.71"/><use xlink:href="#3" y="23.881"/></svg><svg x="3360"><use xlink:href="#a"/><use xlink:href="#b" x="1.996" y="23.856"/><use xlink:href="#1"/><use xlink:href="#2" y="2.171"/><use xlink:href="#4" y="4.342"/><use xlink:href="#5" y="6.513"/><use xlink:href="#6" y="8.684"/><use xlink:href="#7" y="10.855"/><use xlink:href="#8" y="13.026"/><use xlink:href="#9" y="15.197"/><use xlink:href="#10" y="17.368"/><use xlink:href="#11" y="19.539"/><use xlink:href="#2" y="21.71"/><use xlink:href="#3" y="23.881"/></svg><svg x="3440"><use xlink:href="#a"/><use xlink:href="#b" x="1.996" y="23.856"/><use xlink:href="#1"/><use xlink:href="#2" y="2.171"/><use xlink:href="#4" y="4.342"/><use xlink:href="#5" y="6.513"/><use xlink:href="#6" y="8.684"/><use xlink:href="#7" y="10.855"/><use xlink:href="#8" y="13.026"/><use xlink:href="#9" y="15.197"/><use xlink:href="#10" y="17.368"/><use xlink:href="#11" y="19.539"/><use xlink:href="#2" y="21.71"/><use xlink:href="#3" y="23.881"/></svg><svg x="3520"><use xlink:href="#a"/><use xlink:href="#b" x="-.004" y="26.027"/><use xlink:href="#1"/><use xlink:href="#2" y="2.171"/><use xlink:href="#4" y="4.342"/><use xlink:href="#5" y="6.513"/><use xlink:href="#6" y="8.684"/><use xlink:href="#7" y="10.855"/><use xlink:href="#8" y="13.026"/><use xlink:href="#9" y="15.197"/><use xlink:href="#10" y="17.368"/><use xlink:href="#11" y="19.539"/><use xlink:href="#2" y="21.71"/><use xlink:href="#3" y="23.881"/></svg></svg></g></g></svg></svg>